<?xml version="1.0"?>
<svg xmlns="http://www.w3.org/2000/svg" xmlns:xlink="http://www.w3.org/1999/xlink" xmlns:svgjs="http://svgjs.com/svgjs" version="1.1" width="512" height="512" x="0" y="0" viewBox="0 0 512 512" style="enable-background:new 0 0 512 512" xml:space="preserve" class=""><g><g xmlns="http://www.w3.org/2000/svg"><g><path d="m431.027 170c-5.53 0-10.611-3.042-13.222-7.917l-39.583-73.889c-10.04-18.741-9.514-40.821 1.408-59.062s30.135-29.132 51.396-29.132c21.261 0 40.475 10.891 51.397 29.132s11.449 40.321 1.409 59.062l-39.583 73.889c-2.611 4.875-7.692 7.917-13.222 7.917z" fill="#ffffff" data-original="#ff9100" style="" class=""/></g><path d="m482.424 29.132c-10.923-18.241-30.136-29.132-51.397-29.132v170c5.53 0 10.611-3.042 13.222-7.917l39.583-73.889c10.04-18.741 9.514-40.821-1.408-59.062z" fill="#ededed" data-original="#ff6426" style="" class=""/><g><path d="m46.711 359.862c-6.325 0-12.205-4.03-14.264-10.37-7.6-23.4-11.453-47.791-11.453-72.492 0-62.771 24.444-121.784 68.83-166.17s103.4-68.83 166.17-68.83c24.701 0 49.091 3.854 72.492 11.452 7.879 2.559 12.192 11.021 9.634 18.899s-11.018 12.191-18.899 9.634c-20.404-6.626-41.677-9.985-63.227-9.985-113.038 0-205 91.963-205 205 0 21.55 3.36 42.822 9.986 63.225 2.559 7.88-1.754 16.341-9.633 18.9-1.538.5-3.101.737-4.636.737z" fill="#ededed" data-original="#fff5f5" style="" class=""/></g><path d="m319.221 81.985c7.881 2.558 16.341-1.755 18.899-9.634s-1.754-16.341-9.634-18.899c-23.401-7.598-47.79-11.452-72.492-11.452v30c21.55 0 42.823 3.359 63.227 9.985z" fill="#f5f0eb" data-original="#f5f0eb" style="" class=""/><g><path d="m255.994 512c-24.702 0-49.092-3.854-72.493-11.453-7.879-2.559-12.192-11.021-9.633-18.9s11.021-12.192 18.9-9.633c20.403 6.627 41.675 9.986 63.226 9.986 113.038 0 205-91.963 205-205 0-21.553-3.36-42.825-9.986-63.225-2.56-7.879 1.753-16.341 9.632-18.9 7.877-2.56 16.341 1.753 18.9 9.633 7.6 23.397 11.454 47.787 11.454 72.492 0 62.771-24.444 121.784-68.83 166.17s-103.399 68.83-166.17 68.83z" fill="#ededed" data-original="#fff5f5" style="" class=""/></g><path d="m490.995 277c0-24.705-3.854-49.095-11.454-72.492-2.559-7.88-11.022-12.192-18.9-9.633-7.879 2.56-12.192 11.021-9.632 18.9 6.626 20.399 9.986 41.672 9.986 63.225 0 113.037-91.962 205-205 205v30c62.771 0 121.784-24.444 166.17-68.83s68.83-103.399 68.83-166.17z" fill="#f5f0eb" data-original="#f5f0eb" style="" class=""/><g><circle cx="255.994" cy="277" fill="#7ed8f7" r="160" data-original="#7ed8f7" style="" class=""/></g><path d="m415.995 277c0-88.366-71.634-160-160-160v320c88.365 0 160-71.635 160-160z" fill="#2fc0f0" data-original="#2fc0f0" style="" class=""/><path d="m255.994 102c-96.495 0-175 78.505-175 175s78.505 175 175 175 175-78.505 175-175-78.504-175-175-175zm0 320c-4.361 0-14.593-9.938-23.482-36.606-3.952-11.856-7.169-25.378-9.588-40.061h66.139c-2.418 14.683-5.635 28.204-9.588 40.061-8.888 26.668-19.119 36.606-23.481 36.606zm-36.753-106.667c-1.041-12.353-1.58-25.206-1.58-38.333s.539-25.98 1.58-38.333h73.508c1.041 12.353 1.58 25.206 1.58 38.333s-.539 25.98-1.58 38.333zm-108.247-38.333c0-13.266 1.8-26.117 5.153-38.333h73.007c-.984 12.435-1.493 25.276-1.493 38.333s.509 25.898 1.493 38.333h-73.007c-3.352-12.216-5.153-25.067-5.153-38.333zm145-145c4.361 0 14.593 9.938 23.482 36.606 3.952 11.856 7.169 25.378 9.588 40.061h-66.139c2.418-14.683 5.635-28.204 9.588-40.061 8.889-26.668 19.12-36.606 23.481-36.606zm66.841 106.667h73.007c3.352 12.216 5.153 25.067 5.153 38.333s-1.8 26.117-5.153 38.333h-73.007c.984-12.435 1.493-25.276 1.493-38.333s-.509-25.898-1.493-38.333zm61.016-30h-64.436c-2.749-18.167-6.608-34.937-11.478-49.548-2.586-7.758-5.321-14.49-8.15-20.355 36.242 11.508 66.355 36.9 84.064 69.903zm-171.649-69.902c-2.829 5.865-5.564 12.597-8.15 20.355-4.87 14.61-8.729 31.38-11.478 49.548h-64.436c17.709-33.004 47.822-58.396 84.064-69.903zm-84.064 206.568h64.436c2.749 18.167 6.608 34.937 11.478 49.548 2.586 7.758 5.321 14.49 8.15 20.355-36.242-11.508-66.355-36.9-84.064-69.903zm171.649 69.902c2.829-5.865 5.564-12.597 8.15-20.355 4.87-14.61 8.729-31.38 11.478-49.548h64.436c-17.709 33.004-47.822 58.396-84.064 69.903z" fill="#beebfa" data-original="#beebfa" style="" class=""/><path d="m279.476 168.606c3.952 11.856 7.169 25.378 9.588 40.061h-33.069v30h36.754c1.041 12.353 1.58 25.206 1.58 38.333s-.539 25.98-1.58 38.333h-36.754v30h33.069c-2.418 14.683-5.635 28.204-9.588 40.061-8.889 26.668-19.12 36.606-23.482 36.606v30c96.495 0 175-78.505 175-175s-78.505-175-175-175v30c4.362 0 14.593 9.938 23.482 36.606zm121.519 108.394c0 13.266-1.8 26.117-5.153 38.333h-73.007c.984-12.435 1.493-25.276 1.493-38.333s-.509-25.898-1.493-38.333h73.007c3.352 12.216 5.153 25.067 5.153 38.333zm-17.144-68.333h-64.436c-2.749-18.167-6.608-34.937-11.478-49.548-2.586-7.758-5.321-14.49-8.15-20.355 36.242 11.508 66.355 36.9 84.064 69.903zm-75.914 186.214c4.87-14.61 8.729-31.38 11.478-49.548h64.436c-17.71 33.003-47.822 58.395-84.065 69.902 2.83-5.864 5.565-12.597 8.151-20.354z" fill="#7ed8f7" data-original="#7ed8f7" style="" class=""/></g></g></svg>
