<?xml version="1.0"?>
<svg xmlns="http://www.w3.org/2000/svg" xmlns:xlink="http://www.w3.org/1999/xlink" xmlns:svgjs="http://svgjs.com/svgjs" version="1.1" width="512" height="512" x="0" y="0" viewBox="0 0 512 512" style="enable-background:new 0 0 512 512" xml:space="preserve" class=""><g><g xmlns="http://www.w3.org/2000/svg"><g><path d="m354.382 149.891h-35.026c-1.707 0-3.091-1.384-3.091-3.091v-35.026c0-1.707 1.384-3.091 3.091-3.091h35.026c1.707 0 3.091 1.384 3.091 3.091v35.026c0 1.708-1.384 3.091-3.091 3.091z" fill="#05e39c" data-original="#05e39c" style=""/></g><g><path d="m337.384 146.801v-35.026c0-1.707 1.384-3.091 3.091-3.091h-21.119c-1.707 0-3.091 1.384-3.091 3.091v35.026c0 1.707 1.384 3.091 3.091 3.091h21.119c-1.707-.001-3.091-1.384-3.091-3.091z" fill="#0ed290" data-original="#0ed290" style=""/></g><g><path d="m253.424 82.96c-1.153 0-2.09-.938-2.09-2.091v-45.328c0-1.153.938-2.09 2.09-2.09h19.574v-28.225c0-2.886-2.34-5.226-5.226-5.226h-184.743c-1.386 0-2.715.551-3.696 1.531l-45.867 45.867c-.98.98-1.531 2.31-1.531 3.696v245.605c0 2.886 2.34 5.226 5.226 5.226h149.405v-31.768c0-2.289 1.862-4.151 4.151-4.151v-2c-2.289 0-4.151-1.862-4.151-4.151v-72.03c0-2.289 1.862-4.151 4.151-4.151h82.28v-100.714z" fill="#ffffff" data-original="#fef1da" style="" class=""/><path d="m480.064 259.854v-72.03c0-2.845-2.306-5.151-5.151-5.151h-284.195c-2.845 0-5.151 2.306-5.151 5.151v72.03c0 2.845 2.306 5.151 5.151 5.151-2.845 0-5.151 2.306-5.151 5.151v72.03c0 2.845 2.306 5.151 5.151 5.151-2.845 0-5.151 2.306-5.151 5.151v72.03c0 2.845 2.306 5.151 5.151 5.151-2.845 0-5.151 2.306-5.151 5.151v72.03c0 2.845 2.306 5.151 5.151 5.151h284.195c2.845 0 5.151-2.306 5.151-5.151v-72.03c0-2.845-2.306-5.151-5.151-5.151 2.845 0 5.151-2.306 5.151-5.151v-72.03c0-2.845-2.306-5.151-5.151-5.151 2.845 0 5.151-2.306 5.151-5.151v-72.03c0-2.845-2.306-5.151-5.151-5.151 2.845 0 5.151-2.306 5.151-5.151z" fill="#678d98" data-original="#678d98" style="" class=""/><g><path d="m236.427 342.186v-72.03c0-2.845 2.306-5.151 5.151-5.151h-50.859c-2.845 0-5.151 2.306-5.151 5.151v72.03c0 2.845 2.306 5.151 5.151 5.151h50.859c-2.845 0-5.151-2.306-5.151-5.151z" fill="#537983" data-original="#537983" style="" class=""/></g><g><path d="m236.427 506.849v-72.03c0-2.845 2.306-5.151 5.151-5.151h-50.859c-2.845 0-5.151 2.306-5.151 5.151v72.03c0 2.845 2.306 5.151 5.151 5.151h50.859c-2.845 0-5.151-2.306-5.151-5.151z" fill="#537983" data-original="#537983" style="" class=""/></g><g><path d="m73.658 296.698v-245.605c0-1.386.551-2.716 1.531-3.695l45.867-45.867c.98-.98 2.309-1.531 3.696-1.531h-41.723c-1.386 0-2.715.551-3.696 1.531l-45.867 45.867c-.98.98-1.531 2.309-1.531 3.695v245.605c0 2.886 2.34 5.226 5.226 5.226h41.722c-2.885.001-5.225-2.339-5.225-5.226z" fill="#dfdfdf" data-original="#fae2c0" style="" class=""/></g><g><g><path d="m221.683 78.506h-138.432c-4.142 0-7.5-3.358-7.5-7.5s3.358-7.5 7.5-7.5h138.432c4.142 0 7.5 3.358 7.5 7.5s-3.358 7.5-7.5 7.5z" fill="#b8b8b8" data-original="#d8aa5e" style="" class=""/></g><g><path d="m221.683 121.468h-138.432c-4.142 0-7.5-3.358-7.5-7.5s3.358-7.5 7.5-7.5h138.432c4.142 0 7.5 3.358 7.5 7.5s-3.358 7.5-7.5 7.5z" fill="#b8b8b8" data-original="#d8aa5e" style="" class=""/></g><g><path d="m221.683 164.429h-138.432c-4.142 0-7.5-3.358-7.5-7.5s3.358-7.5 7.5-7.5h138.432c4.142 0 7.5 3.358 7.5 7.5s-3.358 7.5-7.5 7.5z" fill="#b8b8b8" data-original="#d8aa5e" style="" class=""/></g><path d="m186.567 192.391h-103.316c-4.142 0-7.5 3.358-7.5 7.5s3.358 7.5 7.5 7.5h103.316z" fill="#b8b8b8" data-original="#d8aa5e" style="" class=""/><g><path d="m145.307 250.353h-62.056c-4.142 0-7.5-3.358-7.5-7.5s3.358-7.5 7.5-7.5h62.056c4.142 0 7.5 3.358 7.5 7.5s-3.358 7.5-7.5 7.5z" fill="#b8b8b8" data-original="#d8aa5e" style="" class=""/></g></g></g><g><path d="m298.753 83.96h-45.328c-1.707 0-3.091-1.384-3.091-3.091v-45.328c0-1.707 1.384-3.091 3.091-3.091h45.328c1.707 0 3.091 1.384 3.091 3.091v45.328c-.001 1.707-1.385 3.091-3.091 3.091z" fill="#01d0fb" data-original="#01d0fb" style="" class=""/></g><g><path d="m271.453 80.869v-45.328c0-1.707 1.384-3.091 3.091-3.091h-21.119c-1.707 0-3.091 1.384-3.091 3.091v45.328c0 1.707 1.384 3.091 3.091 3.091h21.119c-1.708 0-3.091-1.384-3.091-3.091z" fill="#01c0fa" data-original="#01c0fa" style="" class=""/></g><g><path d="m440.918 108.684h-45.328c-1.707 0-3.091-1.384-3.091-3.091v-45.327c0-1.707 1.384-3.091 3.091-3.091h45.328c1.707 0 3.091 1.384 3.091 3.091v45.328c-.001 1.706-1.385 3.09-3.091 3.09z" fill="#01d0fb" data-original="#01d0fb" style="" class=""/></g><g><path d="m413.618 105.594v-45.328c0-1.707 1.384-3.091 3.091-3.091h-21.119c-1.707 0-3.091 1.384-3.091 3.091v45.328c0 1.707 1.384 3.091 3.091 3.091h21.119c-1.708-.001-3.091-1.385-3.091-3.091z" fill="#01c0fa" data-original="#01c0fa" style="" class=""/></g><g><g><g><g><path d="m474.913 265.005h-284.195c-2.845 0-5.151-2.306-5.151-5.151v-72.03c0-2.845 2.306-5.151 5.151-5.151h284.195c2.845 0 5.151 2.306 5.151 5.151v72.03c0 2.845-2.306 5.151-5.151 5.151z" fill="#7ca1b1" data-original="#7ca1b1" style="" class=""/></g><g><path d="m236.427 259.854v-72.03c0-2.845 2.306-5.151 5.151-5.151h-50.859c-2.845 0-5.151 2.306-5.151 5.151v72.03c0 2.845 2.306 5.151 5.151 5.151h50.859c-2.845 0-5.151-2.306-5.151-5.151z" fill="#678d98" data-original="#678d98" style="" class=""/></g><g><g><path d="m277.242 231.339h-55.28c-4.142 0-7.5-3.358-7.5-7.5s3.358-7.5 7.5-7.5h55.28c4.142 0 7.5 3.358 7.5 7.5s-3.358 7.5-7.5 7.5z" fill="#3e5959" data-original="#3e5959" style="" class=""/></g><g><circle cx="441.146" cy="223.839" fill="#01d0fb" r="7.5" data-original="#01d0fb" style="" class=""/></g><g><circle cx="420.146" cy="223.839" fill="#ffffff" r="7.5" data-original="#ffffff" style="" class=""/></g><g><circle cx="399.146" cy="223.839" fill="#ffffff" r="7.5" data-original="#ffffff" style="" class=""/></g></g></g><g><g><g><path d="m277.242 313.671h-55.28c-4.142 0-7.5-3.358-7.5-7.5s3.358-7.5 7.5-7.5h55.28c4.142 0 7.5 3.358 7.5 7.5s-3.358 7.5-7.5 7.5z" fill="#3e5959" data-original="#3e5959" style="" class=""/></g><g><circle cx="441.146" cy="306.171" fill="#ffffff" r="7.5" data-original="#ffffff" style="" class=""/></g><g><circle cx="420.146" cy="306.171" fill="#01d0fb" r="7.5" data-original="#01d0fb" style="" class=""/></g><g><circle cx="399.146" cy="306.171" fill="#05e39c" r="7.5" data-original="#05e39c" style=""/></g></g></g><g><g><path d="m474.913 429.668h-284.195c-2.845 0-5.151-2.306-5.151-5.151v-72.03c0-2.845 2.306-5.151 5.151-5.151h284.195c2.845 0 5.151 2.306 5.151 5.151v72.03c0 2.845-2.306 5.151-5.151 5.151z" fill="#7ca1b1" data-original="#7ca1b1" style="" class=""/></g><g><path d="m236.427 424.517v-72.03c0-2.845 2.306-5.151 5.151-5.151h-50.859c-2.845 0-5.151 2.306-5.151 5.151v72.03c0 2.845 2.306 5.151 5.151 5.151h50.859c-2.845 0-5.151-2.306-5.151-5.151z" fill="#678d98" data-original="#678d98" style="" class=""/></g><g><g><path d="m277.242 396.002h-55.28c-4.142 0-7.5-3.358-7.5-7.5s3.358-7.5 7.5-7.5h55.28c4.142 0 7.5 3.358 7.5 7.5s-3.358 7.5-7.5 7.5z" fill="#3e5959" data-original="#3e5959" style="" class=""/></g><g><circle cx="441.146" cy="388.503" fill="#05e39c" r="7.5" data-original="#05e39c" style=""/></g><g><circle cx="420.146" cy="388.503" fill="#05e39c" r="7.5" data-original="#05e39c" style=""/></g><g><circle cx="399.146" cy="388.503" fill="#01d0fb" r="7.5" data-original="#01d0fb" style="" class=""/></g></g></g><g><g><g><path d="m277.242 478.334h-55.28c-4.142 0-7.5-3.358-7.5-7.5s3.358-7.5 7.5-7.5h55.28c4.142 0 7.5 3.358 7.5 7.5s-3.358 7.5-7.5 7.5z" fill="#3e5959" data-original="#3e5959" style="" class=""/></g><g><circle cx="441.146" cy="470.834" fill="#01d0fb" r="7.5" data-original="#01d0fb" style="" class=""/></g><g><circle cx="420.146" cy="470.834" fill="#05e39c" r="7.5" data-original="#05e39c" style=""/></g><g><circle cx="399.146" cy="470.834" fill="#ffffff" r="7.5" data-original="#ffffff" style="" class=""/></g></g></g></g></g><path d="m154 381h-44c-1.657 0-3-1.343-3-3v-44c0-1.657 1.343-3 3-3h44c1.657 0 3 1.343 3 3v44c0 1.657-1.343 3-3 3z" fill="#05e39c" data-original="#05e39c" style=""/><path d="m127 378v-44c0-1.657 1.343-3 3-3h-20c-1.657 0-3 1.343-3 3v44c0 1.657 1.343 3 3 3h20c-1.657 0-3-1.343-3-3z" fill="#0ed290" data-original="#0ed290" style=""/></g></g></svg>
