<?xml version="1.0"?>
<svg xmlns="http://www.w3.org/2000/svg" xmlns:xlink="http://www.w3.org/1999/xlink" xmlns:svgjs="http://svgjs.com/svgjs" version="1.1" width="512" height="512" x="0" y="0" viewBox="0 0 511.94 511.94" style="enable-background:new 0 0 512 512" xml:space="preserve" class=""><g><g xmlns="http://www.w3.org/2000/svg"><path d="m346.352 400.629v111.282h165.529v-90.352l-17.409-17.611z" fill="#ffffff" data-original="#00347b" style="" class=""/><path d="m150.53 391.559h361.41v30h-361.41z" fill="#7dd5f4" data-original="#7dd5f4" style="" class=""/><path d="m316.175 391.559h195.765v30h-195.765z" fill="#6ba7ff" data-original="#6ba7ff" style="" class=""/><path d="m240.999 195.789h150.47v90.24h-150.47z" fill="#e5f2fa" data-original="#e5f2fa" style="" class=""/><path d="m316.239 195.789h75.23v90.24h-75.23z" fill="#cee9f8" data-original="#cee9f8" style="" class=""/><path d="m218.293.029h195.65v90.23h-195.65z" fill="#fbfbfb" data-original="#00429c" style="" class=""/><path d="m316.123.029h97.82v90.23h-97.82z" fill="#ffffff" data-original="#00347b" style="" class=""/><path d="m424.77 83.522 41.93 142.267h-316.17v-15l-120.53-120.53h-15l33.429-14.907 117.101-15.093h150.645z" fill="#ffffff" data-original="#00347b" style="" class=""/><path d="m316.175 60.259h150.525v165.53h-150.525z" fill="#dbdbdb" data-original="#002659" style="" class=""/><path d="m165.53 60.259v451.65h-165.53v-60.23l8.855-15-8.855-15v-30.24l11.153-15-11.153-15v-30.23l14.472-15-14.472-15v-30.24l11.153-15-11.153-15v-30.24l13.961-15-13.961-15c0-29.952 0-97.785 0-120.47z" fill="#fbfbfb" data-original="#00429c" style="" class=""/><path d="m301.12 316.209h30v45.17h-30z" fill="#f7f7f7" data-original="#f6e178" style="" class=""/><path d="m240.881 316.205h30v30.118h-30z" fill="#f7f7f7" data-original="#f6e178" style="" class=""/><path d="m361.352 316.205h30v30.118h-30z" fill="#ffffff" data-original="#eec078" style="" class=""/><path d="m316.12 316.209h15v45.17h-15z" fill="#ffffff" data-original="#eec078" style="" class=""/><path d="m210.763 128.028h30.118v30h-30.118z" fill="#14162d" data-original="#ff4d4d" style="" class=""/><path d="m270.999 128.028h30.117v30h-30.117z" fill="#14162d" data-original="#ff4d4d" style="" class=""/><path d="m331.234 128.028h30.117v30h-30.117z" fill="#14162d" data-original="#cc295f" style="" class=""/><path d="m391.47 128.028h30.117v30h-30.117z" fill="#14162d" data-original="#cc295f" style="" class=""/><g fill="#e5f2fa"><path d="m0 421.679h82.76v30h-82.76z" fill="#e5f2fa" data-original="#e5f2fa" style="" class=""/><path d="m0 361.439h82.76v30h-82.76z" fill="#e5f2fa" data-original="#e5f2fa" style="" class=""/><path d="m0 301.209h82.76v30h-82.76z" fill="#e5f2fa" data-original="#e5f2fa" style="" class=""/><path d="m0 240.969h82.76v30h-82.76z" fill="#e5f2fa" data-original="#e5f2fa" style="" class=""/><path d="m0 180.729h82.76v30h-82.76z" fill="#e5f2fa" data-original="#e5f2fa" style="" class=""/><path d="m0 120.499h82.76v30h-82.76z" fill="#e5f2fa" data-original="#e5f2fa" style="" class=""/></g></g></g></svg>
