<svg id="Capa_1" enable-background="new 0 0 512 512" height="512" viewBox="0 0 512 512" width="512" xmlns="http://www.w3.org/2000/svg"><g><path d="m133.688 87.145c-59.172 0-107.313 48.141-107.313 107.313v23.296l-25.162 58.713c-1.986 4.634-1.511 9.956 1.265 14.166 2.775 4.21 7.481 6.743 12.523 6.743h11.375v59.729c0 8.284 6.716 15 15 15h64.124v37.75c0 8.284 6.716 15 15 15h105.5c8.284 0 15-6.716 15-15v-215.397c0-59.172-48.14-107.313-107.312-107.313z"/><path d="m424 171.666v13.667h61.232c-4.205-49.701-42.426-89.857-91.232-97.038v68.371h15c8.284 0 15 6.716 15 15z"/><path d="m364 186.666h30v30h-30z"/><path d="m510.787 276.467-25.162-61.133h-61.625v16.333c0 8.284-6.716 15-15 15h-60c-8.284 0-15-6.716-15-15v-15h-63v193.188c0 8.284 6.716 15 15 15h105.5c8.284 0 15-6.716 15-15v-37.75h64.125c8.284 0 15-6.716 15-15v-59.729h11.375c5.042 0 9.747-2.533 12.522-6.743 2.776-4.21 3.251-9.532 1.265-14.166z"/><path d="m334 171.666c0-8.284 6.716-15 15-15h15v-68.564c-49.9 6.681-89.054 47.782-92.715 98.564h62.715z"/></g></svg>